<svg xmlns="http://www.w3.org/2000/svg" xmlns:xlink="http://www.w3.org/1999/xlink" version="1.1" shape-rendering="crispEdges" viewBox="0 0 33 33"><rect x="0" y="0" height="33" width="33" fill="#FFF"/><rect x="0" y="0" height="1" width="7" fill="#000"/><rect x="8" y="0" height="1" width="2" fill="#000"/><rect x="13" y="0" height="4" width="2" fill="#000"/><rect x="17" y="0" height="1" width="1" fill="#000"/><rect x="20" y="0" height="1" width="5" fill="#000"/><rect x="26" y="0" height="1" width="7" fill="#000"/><rect x="0" y="1" height="6" width="1" fill="#000"/><rect x="6" y="1" height="6" width="1" fill="#000"/><rect x="9" y="1" height="1" width="1" fill="#000"/><rect x="11" y="1" height="1" width="1" fill="#000"/><rect x="16" y="1" height="1" width="1" fill="#000"/><rect x="19" y="1" height="1" width="1" fill="#000"/><rect x="21" y="1" height="1" width="3" fill="#000"/><rect x="26" y="1" height="6" width="1" fill="#000"/><rect x="32" y="1" height="6" width="1" fill="#000"/><rect x="2" y="2" height="3" width="3" fill="#000"/><rect x="12" y="2" height="1" width="1" fill="#000"/><rect x="17" y="2" height="1" width="1" fill="#000"/><rect x="20" y="2" height="1" width="1" fill="#000"/><rect x="22" y="2" height="1" width="3" fill="#000"/><rect x="28" y="2" height="3" width="3" fill="#000"/><rect x="8" y="3" height="1" width="1" fill="#000"/><rect x="10" y="3" height="1" width="2" fill="#000"/><rect x="15" y="3" height="3" width="1" fill="#000"/><rect x="22" y="3" height="5" width="1" fill="#000"/><rect x="10" y="4" height="1" width="1" fill="#000"/><rect x="13" y="4" height="1" width="1" fill="#000"/><rect x="20" y="4" height="1" width="2" fill="#000"/><rect x="9" y="5" height="1" width="1" fill="#000"/><rect x="12" y="5" height="3" width="1" fill="#000"/><rect x="19" y="5" height="1" width="1" fill="#000"/><rect x="1" y="6" height="1" width="5" fill="#000"/><rect x="8" y="6" height="1" width="1" fill="#000"/><rect x="10" y="6" height="1" width="1" fill="#000"/><rect x="14" y="6" height="2" width="1" fill="#000"/><rect x="16" y="6" height="1" width="1" fill="#000"/><rect x="18" y="6" height="3" width="1" fill="#000"/><rect x="20" y="6" height="2" width="1" fill="#000"/><rect x="24" y="6" height="4" width="1" fill="#000"/><rect x="27" y="6" height="1" width="5" fill="#000"/><rect x="9" y="7" height="1" width="1" fill="#000"/><rect x="11" y="7" height="2" width="1" fill="#000"/><rect x="15" y="7" height="2" width="1" fill="#000"/><rect x="17" y="7" height="1" width="1" fill="#000"/><rect x="21" y="7" height="3" width="1" fill="#000"/><rect x="2" y="8" height="1" width="1" fill="#000"/><rect x="4" y="8" height="1" width="3" fill="#000"/><rect x="8" y="8" height="1" width="1" fill="#000"/><rect x="13" y="8" height="2" width="1" fill="#000"/><rect x="16" y="8" height="2" width="1" fill="#000"/><rect x="23" y="8" height="1" width="1" fill="#000"/><rect x="25" y="8" height="1" width="1" fill="#000"/><rect x="29" y="8" height="4" width="1" fill="#000"/><rect x="32" y="8" height="3" width="1" fill="#000"/><rect x="0" y="9" height="3" width="2" fill="#000"/><rect x="3" y="9" height="1" width="1" fill="#000"/><rect x="7" y="9" height="1" width="1" fill="#000"/><rect x="10" y="9" height="1" width="1" fill="#000"/><rect x="14" y="9" height="1" width="1" fill="#000"/><rect x="22" y="9" height="5" width="1" fill="#000"/><rect x="26" y="9" height="6" width="1" fill="#000"/><rect x="30" y="9" height="1" width="2" fill="#000"/><rect x="4" y="10" height="1" width="3" fill="#000"/><rect x="9" y="10" height="1" width="1" fill="#000"/><rect x="11" y="10" height="2" width="2" fill="#000"/><rect x="15" y="10" height="1" width="1" fill="#000"/><rect x="18" y="10" height="1" width="3" fill="#000"/><rect x="25" y="10" height="1" width="1" fill="#000"/><rect x="28" y="10" height="1" width="1" fill="#000"/><rect x="31" y="10" height="5" width="1" fill="#000"/><rect x="2" y="11" height="1" width="4" fill="#000"/><rect x="8" y="11" height="2" width="1" fill="#000"/><rect x="13" y="11" height="1" width="1" fill="#000"/><rect x="16" y="11" height="2" width="2" fill="#000"/><rect x="21" y="11" height="1" width="1" fill="#000"/><rect x="23" y="11" height="2" width="1" fill="#000"/><rect x="2" y="12" height="1" width="2" fill="#000"/><rect x="5" y="12" height="1" width="3" fill="#000"/><rect x="12" y="12" height="1" width="1" fill="#000"/><rect x="14" y="12" height="1" width="2" fill="#000"/><rect x="18" y="12" height="3" width="1" fill="#000"/><rect x="20" y="12" height="2" width="1" fill="#000"/><rect x="24" y="12" height="3" width="2" fill="#000"/><rect x="27" y="12" height="1" width="2" fill="#000"/><rect x="2" y="13" height="1" width="1" fill="#000"/><rect x="4" y="13" height="5" width="1" fill="#000"/><rect x="10" y="13" height="1" width="2" fill="#000"/><rect x="13" y="13" height="1" width="1" fill="#000"/><rect x="15" y="13" height="1" width="2" fill="#000"/><rect x="19" y="13" height="1" width="1" fill="#000"/><rect x="27" y="13" height="3" width="1" fill="#000"/><rect x="29" y="13" height="5" width="1" fill="#000"/><rect x="32" y="13" height="2" width="1" fill="#000"/><rect x="3" y="14" height="1" width="1" fill="#000"/><rect x="5" y="14" height="1" width="2" fill="#000"/><rect x="9" y="14" height="1" width="1" fill="#000"/><rect x="11" y="14" height="1" width="1" fill="#000"/><rect x="14" y="14" height="1" width="1" fill="#000"/><rect x="21" y="14" height="3" width="1" fill="#000"/><rect x="28" y="14" height="1" width="1" fill="#000"/><rect x="30" y="14" height="1" width="1" fill="#000"/><rect x="0" y="15" height="1" width="2" fill="#000"/><rect x="5" y="15" height="3" width="1" fill="#000"/><rect x="10" y="15" height="3" width="1" fill="#000"/><rect x="13" y="15" height="4" width="1" fill="#000"/><rect x="16" y="15" height="1" width="1" fill="#000"/><rect x="22" y="15" height="2" width="1" fill="#000"/><rect x="24" y="15" height="1" width="1" fill="#000"/><rect x="0" y="16" height="1" width="1" fill="#000"/><rect x="3" y="16" height="3" width="1" fill="#000"/><rect x="6" y="16" height="1" width="4" fill="#000"/><rect x="14" y="16" height="1" width="2" fill="#000"/><rect x="18" y="16" height="1" width="3" fill="#000"/><rect x="23" y="16" height="1" width="1" fill="#000"/><rect x="25" y="16" height="2" width="2" fill="#000"/><rect x="30" y="16" height="3" width="1" fill="#000"/><rect x="1" y="17" height="1" width="2" fill="#000"/><rect x="9" y="17" height="3" width="1" fill="#000"/><rect x="14" y="17" height="3" width="1" fill="#000"/><rect x="18" y="17" height="2" width="1" fill="#000"/><rect x="20" y="17" height="2" width="1" fill="#000"/><rect x="31" y="17" height="10" width="1" fill="#000"/><rect x="1" y="18" height="1" width="1" fill="#000"/><rect x="6" y="18" height="1" width="1" fill="#000"/><rect x="8" y="18" height="1" width="1" fill="#000"/><rect x="12" y="18" height="1" width="1" fill="#000"/><rect x="17" y="18" height="3" width="1" fill="#000"/><rect x="22" y="18" height="2" width="1" fill="#000"/><rect x="25" y="18" height="4" width="1" fill="#000"/><rect x="27" y="18" height="2" width="1" fill="#000"/><rect x="0" y="19" height="1" width="1" fill="#000"/><rect x="2" y="19" height="1" width="1" fill="#000"/><rect x="4" y="19" height="1" width="2" fill="#000"/><rect x="11" y="19" height="1" width="1" fill="#000"/><rect x="16" y="19" height="2" width="1" fill="#000"/><rect x="21" y="19" height="5" width="1" fill="#000"/><rect x="26" y="19" height="1" width="1" fill="#000"/><rect x="32" y="19" height="1" width="1" fill="#000"/><rect x="1" y="20" height="2" width="1" fill="#000"/><rect x="3" y="20" height="2" width="2" fill="#000"/><rect x="6" y="20" height="1" width="1" fill="#000"/><rect x="8" y="20" height="2" width="1" fill="#000"/><rect x="10" y="20" height="1" width="1" fill="#000"/><rect x="13" y="20" height="1" width="1" fill="#000"/><rect x="20" y="20" height="2" width="1" fill="#000"/><rect x="29" y="20" height="1" width="1" fill="#000"/><rect x="7" y="21" height="1" width="1" fill="#000"/><rect x="9" y="21" height="2" width="1" fill="#000"/><rect x="18" y="21" height="1" width="2" fill="#000"/><rect x="23" y="21" height="1" width="1" fill="#000"/><rect x="30" y="21" height="1" width="1" fill="#000"/><rect x="32" y="21" height="3" width="1" fill="#000"/><rect x="0" y="22" height="1" width="1" fill="#000"/><rect x="5" y="22" height="1" width="2" fill="#000"/><rect x="10" y="22" height="1" width="1" fill="#000"/><rect x="12" y="22" height="2" width="1" fill="#000"/><rect x="14" y="22" height="1" width="2" fill="#000"/><rect x="22" y="22" height="1" width="1" fill="#000"/><rect x="26" y="22" height="1" width="4" fill="#000"/><rect x="1" y="23" height="1" width="2" fill="#000"/><rect x="7" y="23" height="1" width="2" fill="#000"/><rect x="11" y="23" height="1" width="1" fill="#000"/><rect x="14" y="23" height="1" width="1" fill="#000"/><rect x="17" y="23" height="1" width="2" fill="#000"/><rect x="20" y="23" height="1" width="1" fill="#000"/><rect x="23" y="23" height="1" width="1" fill="#000"/><rect x="25" y="23" height="2" width="1" fill="#000"/><rect x="27" y="23" height="2" width="2" fill="#000"/><rect x="0" y="24" height="1" width="1" fill="#000"/><rect x="5" y="24" height="1" width="3" fill="#000"/><rect x="10" y="24" height="1" width="1" fill="#000"/><rect x="17" y="24" height="2" width="1" fill="#000"/><rect x="22" y="24" height="1" width="1" fill="#000"/><rect x="24" y="24" height="6" width="1" fill="#000"/><rect x="26" y="24" height="1" width="1" fill="#000"/><rect x="8" y="25" height="1" width="2" fill="#000"/><rect x="11" y="25" height="1" width="1" fill="#000"/><rect x="13" y="25" height="2" width="1" fill="#000"/><rect x="15" y="25" height="1" width="2" fill="#000"/><rect x="23" y="25" height="2" width="1" fill="#000"/><rect x="28" y="25" height="6" width="1" fill="#000"/><rect x="30" y="25" height="1" width="1" fill="#000"/><rect x="32" y="25" height="3" width="1" fill="#000"/><rect x="0" y="26" height="1" width="7" fill="#000"/><rect x="9" y="26" height="2" width="2" fill="#000"/><rect x="12" y="26" height="4" width="1" fill="#000"/><rect x="15" y="26" height="2" width="1" fill="#000"/><rect x="18" y="26" height="2" width="1" fill="#000"/><rect x="21" y="26" height="1" width="1" fill="#000"/><rect x="26" y="26" height="1" width="1" fill="#000"/><rect x="29" y="26" height="1" width="1" fill="#000"/><rect x="0" y="27" height="6" width="1" fill="#000"/><rect x="6" y="27" height="6" width="1" fill="#000"/><rect x="8" y="27" height="2" width="1" fill="#000"/><rect x="11" y="27" height="1" width="1" fill="#000"/><rect x="16" y="27" height="1" width="2" fill="#000"/><rect x="2" y="28" height="3" width="3" fill="#000"/><rect x="13" y="28" height="2" width="1" fill="#000"/><rect x="16" y="28" height="1" width="1" fill="#000"/><rect x="20" y="28" height="2" width="1" fill="#000"/><rect x="25" y="28" height="1" width="3" fill="#000"/><rect x="29" y="28" height="1" width="1" fill="#000"/><rect x="31" y="28" height="1" width="1" fill="#000"/><rect x="18" y="29" height="1" width="1" fill="#000"/><rect x="23" y="29" height="3" width="1" fill="#000"/><rect x="30" y="29" height="1" width="1" fill="#000"/><rect x="8" y="30" height="1" width="1" fill="#000"/><rect x="10" y="30" height="1" width="2" fill="#000"/><rect x="17" y="30" height="3" width="1" fill="#000"/><rect x="25" y="30" height="1" width="1" fill="#000"/><rect x="27" y="30" height="3" width="1" fill="#000"/><rect x="32" y="30" height="1" width="1" fill="#000"/><rect x="14" y="31" height="2" width="2" fill="#000"/><rect x="18" y="31" height="2" width="1" fill="#000"/><rect x="21" y="31" height="1" width="1" fill="#000"/><rect x="24" y="31" height="2" width="1" fill="#000"/><rect x="30" y="31" height="2" width="2" fill="#000"/><rect x="1" y="32" height="1" width="5" fill="#000"/><rect x="9" y="32" height="1" width="1" fill="#000"/><rect x="11" y="32" height="1" width="2" fill="#000"/><rect x="16" y="32" height="1" width="1" fill="#000"/><rect x="22" y="32" height="1" width="1" fill="#000"/><rect x="25" y="32" height="1" width="2" fill="#000"/><rect x="28" y="32" height="1" width="1" fill="#000"/><rect x="32" y="32" height="1" width="1" fill="#000"/></svg>