<svg shape-rendering="crispEdges" viewBox="0 0 33 33" xmlns="http://www.w3.org/2000/svg"><path d="m0 0h33v33h-33z" fill="#fff"/><path d="m0 0h7v1h-7z"/><path d="m8 0h2v1h-2z"/><path d="m13 0h2v4h-2z"/><path d="m17 0h1v1h-1z"/><path d="m20 0h5v1h-5z"/><path d="m26 0h7v1h-7z"/><path d="m0 1h1v6h-1z"/><path d="m6 1h1v6h-1z"/><path d="m9 1h1v1h-1z"/><path d="m11 1h1v1h-1z"/><path d="m16 1h1v1h-1z"/><path d="m19 1h1v1h-1z"/><path d="m21 1h3v1h-3z"/><path d="m26 1h1v6h-1z"/><path d="m32 1h1v6h-1z"/><path d="m2 2h3v3h-3z"/><path d="m12 2h1v1h-1z"/><path d="m17 2h1v1h-1z"/><path d="m20 2h1v1h-1z"/><path d="m22 2h3v1h-3z"/><path d="m28 2h3v3h-3z"/><path d="m8 3h1v1h-1z"/><path d="m10 3h2v1h-2z"/><path d="m15 3h1v3h-1z"/><path d="m22 3h1v5h-1z"/><path d="m10 4h1v1h-1z"/><path d="m13 4h1v1h-1z"/><path d="m20 4h2v1h-2z"/><path d="m9 5h1v1h-1z"/><path d="m12 5h1v3h-1z"/><path d="m19 5h1v1h-1z"/><path d="m1 6h5v1h-5z"/><path d="m8 6h1v1h-1z"/><path d="m10 6h1v1h-1z"/><path d="m14 6h1v2h-1z"/><path d="m16 6h1v1h-1z"/><path d="m18 6h1v3h-1z"/><path d="m20 6h1v2h-1z"/><path d="m24 6h1v4h-1z"/><path d="m27 6h5v1h-5z"/><path d="m9 7h1v1h-1z"/><path d="m11 7h1v2h-1z"/><path d="m15 7h1v2h-1z"/><path d="m17 7h1v1h-1z"/><path d="m21 7h1v3h-1z"/><path d="m2 8h1v1h-1z"/><path d="m4 8h3v1h-3z"/><path d="m8 8h1v1h-1z"/><path d="m13 8h1v2h-1z"/><path d="m16 8h1v2h-1z"/><path d="m23 8h1v1h-1z"/><path d="m25 8h1v1h-1z"/><path d="m29 8h1v4h-1z"/><path d="m32 8h1v3h-1z"/><path d="m0 9h2v3h-2z"/><path d="m3 9h1v1h-1z"/><path d="m7 9h1v1h-1z"/><path d="m10 9h1v1h-1z"/><path d="m14 9h1v1h-1z"/><path d="m22 9h1v5h-1z"/><path d="m26 9h1v6h-1z"/><path d="m30 9h2v1h-2z"/><path d="m4 10h3v1h-3z"/><path d="m9 10h1v1h-1z"/><path d="m11 10h2v2h-2z"/><path d="m15 10h1v1h-1z"/><path d="m18 10h3v1h-3z"/><path d="m25 10h1v1h-1z"/><path d="m28 10h1v1h-1z"/><path d="m31 10h1v5h-1z"/><path d="m2 11h4v1h-4z"/><path d="m8 11h1v2h-1z"/><path d="m13 11h1v1h-1z"/><path d="m16 11h2v2h-2z"/><path d="m21 11h1v1h-1z"/><path d="m23 11h1v2h-1z"/><path d="m2 12h2v1h-2z"/><path d="m5 12h3v1h-3z"/><path d="m12 12h1v1h-1z"/><path d="m14 12h2v1h-2z"/><path d="m18 12h1v3h-1z"/><path d="m20 12h1v2h-1z"/><path d="m24 12h2v3h-2z"/><path d="m27 12h2v1h-2z"/><path d="m2 13h1v1h-1z"/><path d="m4 13h1v5h-1z"/><path d="m10 13h2v1h-2z"/><path d="m13 13h1v1h-1z"/><path d="m15 13h2v1h-2z"/><path d="m19 13h1v1h-1z"/><path d="m27 13h1v3h-1z"/><path d="m29 13h1v5h-1z"/><path d="m32 13h1v2h-1z"/><path d="m3 14h1v1h-1z"/><path d="m5 14h2v1h-2z"/><path d="m9 14h1v1h-1z"/><path d="m11 14h1v1h-1z"/><path d="m14 14h1v1h-1z"/><path d="m21 14h1v3h-1z"/><path d="m28 14h1v1h-1z"/><path d="m30 14h1v1h-1z"/><path d="m0 15h2v1h-2z"/><path d="m5 15h1v3h-1z"/><path d="m10 15h1v3h-1z"/><path d="m13 15h1v4h-1z"/><path d="m16 15h1v1h-1z"/><path d="m22 15h1v2h-1z"/><path d="m24 15h1v1h-1z"/><path d="m0 16h1v1h-1z"/><path d="m3 16h1v3h-1z"/><path d="m6 16h4v1h-4z"/><path d="m14 16h2v1h-2z"/><path d="m18 16h3v1h-3z"/><path d="m23 16h1v1h-1z"/><path d="m25 16h2v2h-2z"/><path d="m30 16h1v3h-1z"/><path d="m1 17h2v1h-2z"/><path d="m9 17h1v3h-1z"/><path d="m14 17h1v3h-1z"/><path d="m18 17h1v2h-1z"/><path d="m20 17h1v2h-1z"/><path d="m31 17h1v10h-1z"/><path d="m1 18h1v1h-1z"/><path d="m6 18h1v1h-1z"/><path d="m8 18h1v1h-1z"/><path d="m12 18h1v1h-1z"/><path d="m17 18h1v3h-1z"/><path d="m22 18h1v2h-1z"/><path d="m25 18h1v4h-1z"/><path d="m27 18h1v2h-1z"/><path d="m0 19h1v1h-1z"/><path d="m2 19h1v1h-1z"/><path d="m4 19h2v1h-2z"/><path d="m11 19h1v1h-1z"/><path d="m16 19h1v2h-1z"/><path d="m21 19h1v5h-1z"/><path d="m26 19h1v1h-1z"/><path d="m32 19h1v1h-1z"/><path d="m1 20h1v2h-1z"/><path d="m3 20h2v2h-2z"/><path d="m6 20h1v1h-1z"/><path d="m8 20h1v2h-1z"/><path d="m10 20h1v1h-1z"/><path d="m13 20h1v1h-1z"/><path d="m20 20h1v2h-1z"/><path d="m29 20h1v1h-1z"/><path d="m7 21h1v1h-1z"/><path d="m9 21h1v2h-1z"/><path d="m18 21h2v1h-2z"/><path d="m23 21h1v1h-1z"/><path d="m30 21h1v1h-1z"/><path d="m32 21h1v3h-1z"/><path d="m0 22h1v1h-1z"/><path d="m5 22h2v1h-2z"/><path d="m10 22h1v1h-1z"/><path d="m12 22h1v2h-1z"/><path d="m14 22h2v1h-2z"/><path d="m22 22h1v1h-1z"/><path d="m26 22h4v1h-4z"/><path d="m1 23h2v1h-2z"/><path d="m7 23h2v1h-2z"/><path d="m11 23h1v1h-1z"/><path d="m14 23h1v1h-1z"/><path d="m17 23h2v1h-2z"/><path d="m20 23h1v1h-1z"/><path d="m23 23h1v1h-1z"/><path d="m25 23h1v2h-1z"/><path d="m27 23h2v2h-2z"/><path d="m0 24h1v1h-1z"/><path d="m5 24h3v1h-3z"/><path d="m10 24h1v1h-1z"/><path d="m17 24h1v2h-1z"/><path d="m22 24h1v1h-1z"/><path d="m24 24h1v6h-1z"/><path d="m26 24h1v1h-1z"/><path d="m8 25h2v1h-2z"/><path d="m11 25h1v1h-1z"/><path d="m13 25h1v2h-1z"/><path d="m15 25h2v1h-2z"/><path d="m23 25h1v2h-1z"/><path d="m28 25h1v6h-1z"/><path d="m30 25h1v1h-1z"/><path d="m32 25h1v3h-1z"/><path d="m0 26h7v1h-7z"/><path d="m9 26h2v2h-2z"/><path d="m12 26h1v4h-1z"/><path d="m15 26h1v2h-1z"/><path d="m18 26h1v2h-1z"/><path d="m21 26h1v1h-1z"/><path d="m26 26h1v1h-1z"/><path d="m29 26h1v1h-1z"/><path d="m0 27h1v6h-1z"/><path d="m6 27h1v6h-1z"/><path d="m8 27h1v2h-1z"/><path d="m11 27h1v1h-1z"/><path d="m16 27h2v1h-2z"/><path d="m2 28h3v3h-3z"/><path d="m13 28h1v2h-1z"/><path d="m16 28h1v1h-1z"/><path d="m20 28h1v2h-1z"/><path d="m25 28h3v1h-3z"/><path d="m29 28h1v1h-1z"/><path d="m31 28h1v1h-1z"/><path d="m18 29h1v1h-1z"/><path d="m23 29h1v3h-1z"/><path d="m30 29h1v1h-1z"/><path d="m8 30h1v1h-1z"/><path d="m10 30h2v1h-2z"/><path d="m17 30h1v3h-1z"/><path d="m25 30h1v1h-1z"/><path d="m27 30h1v3h-1z"/><path d="m32 30h1v1h-1z"/><path d="m14 31h2v2h-2z"/><path d="m18 31h1v2h-1z"/><path d="m21 31h1v1h-1z"/><path d="m24 31h1v2h-1z"/><path d="m30 31h2v2h-2z"/><path d="m1 32h5v1h-5z"/><path d="m9 32h1v1h-1z"/><path d="m11 32h2v1h-2z"/><path d="m16 32h1v1h-1z"/><path d="m22 32h1v1h-1z"/><path d="m25 32h2v1h-2z"/><path d="m28 32h1v1h-1z"/><path d="m32 32h1v1h-1z"/></svg>